HIERARCHY
ROOT Hips
{
  OFFSET -187.679 86.5976 -156.378
  CHANNELS 6 Xposition Yposition Zposition Zrotation Xrotation Yrotation
  JOINT LeftUpLeg
  {
    OFFSET 8.64259 1.95398 -2.38835
    CHANNELS 3 Zrotation Xrotation Yrotation
    JOINT LeftLeg
    {
      OFFSET 43.7702 0 0
      CHANNELS 3 Zrotation Xrotation Yrotation
      JOINT LeftFoot
      {
        OFFSET 40.6238 0 0
        CHANNELS 3 Zrotation Xrotation Yrotation
        JOINT LeftToeBase
        {
          OFFSET 12.7242 0 0
          CHANNELS 3 Zrotation Xrotation Yrotation
          End Site
          {
            OFFSET 0 0 0
          }
        }
      }
    }
  }
  JOINT RightUpLeg
  {
    OFFSET -8.2249 1.95398 -2.59336
    CHANNELS 3 Zrotation Xrotation Yrotation
    JOINT RightLeg
    {
      OFFSET 43.5653 0 0
      CHANNELS 3 Zrotation Xrotation Yrotation
      JOINT RightFoot
      {
        OFFSET 40.6238 0 0
        CHANNELS 3 Zrotation Xrotation Yrotation
        JOINT RightToeBase
        {
          OFFSET 12.7242 0 0
          CHANNELS 3 Zrotation Xrotation Yrotation
          End Site
          {
            OFFSET 0 0 0
          }
        }
      }
    }
  }
  JOINT Spine
  {
    OFFSET 0.165834 0.87714 6.61349
    CHANNELS 3 Zrotation Xrotation Yrotation
    JOINT Spine1
    {
      OFFSET 7.38963 1.71661e-005 0
      CHANNELS 3 Zrotation Xrotation Yrotation
      JOINT Spine2
      {
        OFFSET 11.9445 1.14441e-005 0
        CHANNELS 3 Zrotation Xrotation Yrotation
        JOINT Spine3
        {
          OFFSET 14.7254 4.19617e-005 0
          CHANNELS 3 Zrotation Xrotation Yrotation
          JOINT Spine4
          {
            OFFSET 10.9679 0 0
            CHANNELS 3 Zrotation Xrotation Yrotation
            JOINT RightShoulder
            {
              OFFSET 2.46616 -1.6653 3.69651
              CHANNELS 3 Zrotation Xrotation Yrotation
              JOINT RightArm
              {
                OFFSET 13.0012 0 0
                CHANNELS 3 Zrotation Xrotation Yrotation
                JOINT RightForeArm
                {
                  OFFSET 28.7848 1.52588e-005 0
                  CHANNELS 3 Zrotation Xrotation Yrotation
                  JOINT RightHand
                  {
                    OFFSET 26.5688 1.52588e-005 0
                    CHANNELS 3 Zrotation Xrotation Yrotation
                    End Site
                    {
                      OFFSET 0 0 0
                    }
                  }
                }
              }
            }
            JOINT LeftShoulder
            {
              OFFSET 2.38034 -1.29275 -3.7523
              CHANNELS 3 Zrotation Xrotation Yrotation
              JOINT LeftArm
              {
                OFFSET 16.3182 6.10352e-005 0
                CHANNELS 3 Zrotation Xrotation Yrotation
                JOINT LeftForeArm
                {
                  OFFSET 27.0901 0 0
                  CHANNELS 3 Zrotation Xrotation Yrotation
                  JOINT LeftHand
                  {
                    OFFSET 24.5451 1.52588e-005 0
                    CHANNELS 3 Zrotation Xrotation Yrotation
                    End Site
                    {
                      OFFSET 0 0 0
                    }
                  }
                }
              }
            }
            JOINT Neck
            {
              OFFSET 5.0226 -0.0266342 0
              CHANNELS 3 Zrotation Xrotation Yrotation
              JOINT Head
              {
                OFFSET 6.69363 2.86102e-005 0
                CHANNELS 3 Zrotation Xrotation Yrotation
                End Site
                {
                  OFFSET 0 0 0
                }
              }
            }
          }
        }
      }
    }
  }
}
MOTION
Frames:	17
Frame Time:	0.0416667
41.1467 99.8481 24.0257 103.154 -60.7421 105.431 -173.143 -8.3695 88.4124 -29.9578 39.1975 9.29612 79.3854 10.987 0.735348 6.24734 -8.13285 -2.07651 177.859 15.0385 92.1238 -18.2997 7.62158 0.817337 62.1779 -2.38191 -0.491748 25.8252 -1.74144 4.10804 -0.884958 8.11087 -90.2297 10.6504 -1.8681 -0.287175 -1.01924 -1.87894 -0.204654 -23.5636 -1.69542 -0.835495 -3.55091 -1.69542 -0.835498 84.3025 -51.4501 -108.778 29.3676 -13.1061 3.44833 -19.2797 -16.3074 -19.5358 -7.68599 -0.0412039 -4.6513 -88.9559 -41.4611 78.6599 -17.5121 17.0387 -29.9925 10.4034 -5.04022 -17.9589 0.664598 -0.0548857 -3.06476 6.55978 -0.599218 -11.7747 8.71181 1.90756 1.78326 
44.9523 97.6932 33.1221 100.99 -56.7959 103.101 -169.354 -14.2304 93.5799 -29.4533 45.955 8.48163 81.7861 13.2515 1.05972 6.34039 -7.10495 -3.76146 177.836 15.8896 94.4322 -7.21204 10.1856 3.88802 60.5232 -2.17883 1.64131 29.5529 -0.551496 2.39765 -0.945759 8.12088 -90.2543 10.63 -2.00055 -0.324221 -1.03942 -2.01287 -0.235834 -23.5848 -1.8106 -0.910663 -3.57219 -1.81059 -0.910664 84.3437 -52.2687 -108.456 29.8403 -12.1844 5.2714 -18.134 -16.1859 -16.1814 -5.83629 0.0312822 -6.2159 -88.9073 -41.2891 78.6958 -18.9531 16.4771 -32.4691 12.8991 -1.10202 -24.7056 -0.536647 -0.0730696 -3.50364 7.42464 -1.16755 -14.0598 8.6355 1.93883 2.16432 
50.4718 96.4596 43.1027 101.018 -53.0695 103.361 -167.059 -21.2399 96.9699 -30.6567 49.5813 12.339 76.4927 10.0135 2.90424 13.0752 -2.37366 -8.13007 178.582 22.4729 96.5595 -27.1624 3.52911 1.72423 58.9044 0.502052 -1.03485 23.0926 -2.14114 3.66912 -1.09581 8.09527 -90.4228 10.678 -2.37709 -0.623584 -0.990874 -2.40224 -0.51831 -23.5389 -2.07977 -1.30942 -3.52629 -2.07975 -1.30942 84.9859 -52.8262 -107.345 28.791 -12.3016 3.68289 -16.7902 -17.4114 -12.6196 -6.33848 -0.0631983 -4.17348 -89.3446 -42.6682 78.3091 -22.7598 15.8759 -28.7687 14.248 2.21087 -23.9151 0.328805 -0.0567683 -2.9162 8.02203 -0.790049 -11.4368 8.06207 1.6544 0.417703 
56.25 95.8663 52.1947 101.35 -49.7871 104.584 -168.322 -16.0677 98.755 -48.6687 50.9152 16.2494 63.2721 2.06142 1.02661 20.7604 0.950437 -10.2747 177.144 21.5979 97.9973 -40.4478 6.63219 2.6094 64.0677 -1.20634 -0.711987 22.7095 -1.59822 1.89422 -0.989803 8.02114 -90.7533 10.8171 -2.3185 -1.28299 -0.852323 -2.37271 -1.17968 -23.3934 -1.82579 -1.92052 -3.38076 -1.82577 -1.92051 85.7665 -51.3102 -106.651 28.5802 -13.4493 1.49279 -16.8313 -16.2205 -13.5258 -6.57819 0.0217703 -5.86231 -89.8668 -43.037 77.5541 -26.0395 23.5464 -23.0477 9.78169 -2.30975 -11.9254 -1.91342 -0.0630461 -2.93624 8.25791 -0.516371 -8.66388 7.56446 1.42547 1.20252 
60.9481 96.618 59.5496 102.9 -47.0883 105.796 -171.697 -0.699674 99.7843 -65.6338 36.7694 12.7268 58.7287 -0.633716 -3.20169 17.7127 -5.63978 2.77046 176.928 14.3752 98.6452 -41.7986 8.44498 3.10066 69.9961 -2.90922 -1.70901 25.3667 -1.17075 2.01021 -0.546216 8.24155 -90.832 10.3769 -1.46909 -1.52397 -1.29403 -1.53472 -1.45784 -23.8254 -0.94325 -1.89495 -3.81278 -0.943247 -1.89494 85.0008 -51.1883 -107.827 24.3437 -16.956 -5.10146 -17.2541 -16.0583 -16.3086 -8.28911 0.00158093 -5.30127 -90.7693 -44.3446 76.4397 -26.5549 29.7517 -16.5106 8.03988 -1.13539 -8.39421 -6.34251 -0.0838331 -4.4821 9.43729 -1.0861 -7.57244 8.83643 0.672552 0.552818 
65.6221 98.7589 65.689 102.158 -46.1055 102.344 -175.033 13.1132 93.6905 -65.6581 21.2442 8.40296 68.5913 5.09873 2.24412 14.1734 -6.12578 0.529289 176.526 6.09437 95.8995 -35.2325 9.25557 2.67463 71.9333 -3.61158 -1.04402 25.7276 -1.03123 1.77434 0.00851238 8.27574 -90.4724 10.3222 -0.199118 -0.920868 -1.34904 -0.239476 -0.911216 -23.8815 0.0868163 -0.938139 -3.86882 0.0868064 -0.938145 84.2199 -50.9889 -109.049 17.8784 -18.4648 -14.3389 -16.8489 -16.9527 -16.0918 -9.58827 -0.0364661 -4.79205 -90.4923 -44.7467 76.9805 -29.1001 25.3972 -6.77544 8.38153 -4.15506 -10.1595 -3.65612 -0.0989759 -2.79127 8.64243 -1.9114 -7.33684 10.3196 -0.260798 0.265253 
71.0044 99.8986 71.39 100.559 -47.4007 97.6109 -177.257 21.3104 87.5609 -46.5399 13.5964 5.11989 69.6536 5.36699 0.873302 11.9214 -5.96446 -1.69862 175.203 -0.678699 92.2186 -29.543 6.08572 1.56945 73.7069 -4.08023 -2.20034 27.1564 -0.909634 2.18628 0.622776 8.20478 -89.9804 10.4652 1.2496 -0.0715596 -1.20515 1.24524 -0.126517 -23.7449 1.21333 0.307357 -3.73229 1.21333 0.307361 84.923 -48.8429 -108.695 13.8826 -17.5041 -22.373 -18.0636 -17.9127 -18.3356 -8.95737 -0.066456 -4.35997 -89.7259 -44.6247 78.1629 -28.53 23.258 1.00625 8.29106 -7.13505 -13.7964 -2.86176 -0.0941654 -2.4507 7.38707 -2.26916 -4.98678 10.9716 -1.31767 -1.016 
77.3475 99.3983 78.0286 101.912 -48.0275 97.2778 -179.17 19.7232 85.8595 -19.2348 14.7734 4.31046 64.1897 2.76984 -1.89741 16.1283 -6.70039 3.51601 173.799 -9.63909 89.6109 -25.1347 5.41042 0.813513 76.6725 -4.95497 -2.7552 27.2261 -0.938474 2.31778 0.972184 8.32966 -89.7838 10.213 2.03577 0.256116 -1.45638 2.04507 0.166238 -24.0026 1.86465 0.856324 -3.98992 1.86464 0.856314 84.7101 -47.7814 -109.375 8.6778 -15.773 -28.613 -21.0919 -17.6622 -24.3217 -9.69437 -0.0917333 -4.06865 -89.4913 -45.8504 78.8156 -27.075 18.5723 6.85432 8.94671 -7.14884 -15.982 -3.43547 -0.102108 -2.52128 5.91251 -1.95462 -1.74224 11.5465 -1.78123 -1.70122 
84.8816 97.3102 85.9194 104.055 -49.5347 98.389 179.84 18.7571 85.211 -13.3916 12.0363 5.88624 63.6246 2.47637 -1.52508 14.0124 -6.728 1.60555 170.813 -19.2351 86.3498 -21.9682 2.8332 0.517198 78.6503 -5.97726 -2.31736 30.5445 -0.203501 1.71696 1.26344 8.38085 -89.6956 10.1065 2.65618 0.38282 -1.5618 2.67046 0.265459 -24.1149 2.41827 1.16385 -4.10229 2.41828 1.16385 83.9466 -48.2249 -110.396 6.54375 -12.2497 -31.2864 -25.1991 -18.6655 -30.9089 -9.66557 -0.199529 -2.79845 -89.5448 -48.1029 79.2287 -26.0571 15.2588 10.2 8.19399 -11.2874 -13.3678 -4.70983 -0.123967 -2.29257 3.77601 -1.46629 0.182159 12.6372 -1.59501 -0.938302 
93.6833 96.5749 94.7737 104.167 -52.0324 96.1345 -178.189 20.0669 83.7078 -25.0905 14.4796 3.58845 60.5631 0.395633 -1.79184 15.3313 -7.79967 4.98161 166.867 -22.5853 80.2854 -24.6679 0.0750748 -1.32717 71.4451 -4.27853 -2.64795 39.3145 0.834868 4.13934 1.49396 8.18144 -89.2174 10.4979 3.3351 1.25602 -1.16919 3.38713 1.10787 -23.7258 2.80341 2.20077 -3.71317 2.8034 2.20076 82.6676 -49.1741 -111.994 11.9765 -11.0702 -27.7575 -26.255 -18.1775 -32.7172 -11.6619 -0.324461 -1.74042 -88.9359 -48.5393 80.2505 -26.821 16.0455 10.0764 8.25479 -11.2256 -8.23787 -6.45424 -0.152415 -2.37131 4.06188 -1.45982 -0.63273 10.5909 -1.44815 -1.14413 
102.364 97.1678 102.858 105.576 -53.2217 94.3625 -176.361 16.0375 80.242 -33.0886 15.2166 1.76406 68.002 3.87392 0.641475 9.82355 -9.04724 2.3965 165.788 -14.705 75.0231 -44.9954 -3.25525 -4.5904 60.5314 -1.24541 -2.78027 31.1052 -1.30364 6.24385 1.39688 8.04764 -88.7586 10.7443 3.354 2.15955 -0.923862 3.44578 2.00975 -23.4669 2.5502 3.06763 -3.45421 2.5502 3.06763 83.3679 -49.2528 -110.913 17.9436 -19.4623 -23.7355 -21.8221 -19.4971 -25.129 -7.98022 -0.00164911 -5.29433 -89.3633 -48.5779 79.609 -26.9767 17.9383 8.37816 8.23675 -9.4444 -7.73651 -7.85543 -0.125095 -3.3866 3.66101 -1.40047 -1.84577 9.54878 -1.24385 -1.76628 
108.586 98.1231 109.33 106.623 -55.3114 94.51 -176.394 9.61073 78.5139 -33.7345 12.6557 2.35758 73.2644 5.81416 0.564278 11.1888 -8.78522 3.09726 171.632 -0.114665 77.1515 -65.8224 -2.57487 -7.00712 61.8099 -1.96236 -2.27594 23.3695 -2.48131 4.78734 1.17457 8.16145 -88.6144 10.5148 2.97565 2.48778 -1.15484 3.08224 2.35439 -23.6862 2.09087 3.26668 -3.67359 2.09085 3.26666 82.5285 -50.0543 -111.885 22.0632 -23.371 -18.5665 -18.0629 -20.6851 -19.0302 -7.57103 0.0261739 -5.77168 -89.8921 -48.3472 78.7563 -22.4901 20.1387 -0.228471 8.45186 -6.02805 -9.00587 -4.3851 -0.115554 -2.5183 6.08187 -0.667739 -1.60821 9.75899 -0.600301 -2.35286 
113.493 99.6382 115.762 105.265 -54.293 97.2764 -176.35 3.32005 81.2316 -31.5243 14.7221 5.35942 74.8644 6.86178 2.46219 12.6826 -7.39894 1.74406 176.153 10.5014 85.5945 -64.7248 6.02959 -4.54085 69.2498 -4.35281 -1.9536 24.0277 -1.80904 3.2313 0.607695 8.14573 -89.1003 10.5707 1.62407 1.64481 -1.10021 1.69487 1.57175 -23.631 1.05476 2.05674 -3.6184 1.05477 2.05675 82.9835 -50.139 -111.177 26.1611 -24.5422 -11.9754 -15.7722 -18.7323 -15.5422 -6.95456 0.00258129 -5.44778 -89.6122 -46.6805 78.8162 -16.906 21.7531 -10.918 8.14197 -7.72499 -11.3135 -2.49872 -0.0921112 -1.92313 5.72427 0.517904 -1.96941 10.8093 0.685254 -1.60181 
118.391 100.24 122.802 103.257 -50.8116 99.0726 -175.059 -3.50064 85.4824 -29.2967 18.6304 7.29406 77.6312 8.25744 1.50228 14.083 -7.52952 3.28945 177.45 16.2439 92.6814 -45.2032 10.0849 -0.77767 67.4561 -3.72857 -1.85091 25.0096 -1.78482 3.72454 -0.0504041 8.15342 -89.5472 10.567 0.107715 0.889181 -1.10425 0.146753 0.883576 -23.6368 -0.164491 0.880459 -3.62417 -0.164497 0.880437 83.1478 -50.5395 -110.792 29.2675 -20.2571 -3.0765 -17.2908 -17.6282 -17.6844 -7.59661 -0.0112147 -5.15789 -89.2705 -43.0908 78.5257 -13.3969 20.1269 -20.5619 9.07636 -6.69643 -15.836 -2.1348 -0.0836417 -2.9226 4.55497 0.562596 -4.81917 11.4151 1.31915 -0.747 
124.034 99.4407 130.585 101.307 -48.7561 98.0565 -173.229 -9.89733 88.2689 -26.4889 21.6495 7.31268 81.0171 10.2378 0.864475 14.2985 -8.73148 5.88294 178.254 15.4191 94.1659 -15.547 11.8616 1.59483 63.6495 -2.92908 -0.968454 25.702 -1.54912 3.39194 -0.292134 8.12966 -89.5807 10.6153 -0.388901 0.868643 -1.05587 -0.350301 0.884901 -23.5898 -0.631981 0.711605 -3.57717 -0.63198 0.711616 83.8055 -51.2652 -109.573 32.1446 -14.4129 4.01034 -18.4385 -15.4928 -18.5835 -7.52409 -0.033644 -4.78956 -89.5257 -41.4026 77.7033 -8.06976 17.5569 -29.7619 10.6709 -4.23565 -20.5198 -2.63741 -0.0868177 -4.1601 4.39755 -0.545876 -9.07194 11.5628 1.1374 0.447561 
130.542 97.3785 139.2 100.934 -46.3778 98.1023 -170.069 -16.9047 92.3061 -25.8506 24.1098 7.33159 84.6615 12.0325 -0.249023 14.3556 -8.04216 4.57016 179.386 17.8488 94.875 -10.6926 12.4297 2.14993 64.6922 -2.40988 -1.23242 23.1614 -2.08953 3.54602 -0.516439 8.13312 -89.6859 10.611 -0.884007 0.704036 -1.05983 -0.852173 0.742254 -23.5968 -1.05474 0.40579 -3.58416 -1.05474 0.405791 83.8358 -51.9867 -109.291 33.2594 -13.8609 7.77104 -16.8447 -14.9488 -14.9949 -5.53503 -0.0524556 -4.4462 -89.8562 -43.099 77.5879 -8.06226 12.0941 -33.2942 12.773 -2.01379 -25.4268 -0.145078 -0.0740748 -3.7461 4.61543 -1.05122 -9.9568 11.9707 0.783755 0.151466 
138.124 96.0654 149.123 101.749 -43.5551 100.74 -166.056 -22.3998 98.7028 -28.1428 28.9234 8.89601 76.8169 10.1029 4.48918 27.687 -0.67728 0.407034 177.899 21.6332 96.7795 -28.7643 11.1288 3.2843 61.3917 0.137694 -1.11514 20.6321 -2.33126 2.88962 -0.769545 8.1123 -90.0814 10.6516 -1.57001 -0.0177167 -1.01839 -1.56925 0.0514075 -23.5607 -1.49208 -0.488854 -3.54803 -1.49207 -0.488857 84.769 -51.7978 -107.979 33.1828 -14.0905 7.3556 -15.1187 -14.9968 -9.98947 -4.15082 0.0105292 -6.03199 -90.5578 -44.668 76.8563 -14.2587 11.485 -28.6911 14.2408 -0.347647 -28.3759 -1.43326 -0.0938536 -4.84177 4.50016 -0.878551 -8.43845 10.92 0.597629 -0.452423 
